<svg width="43" height="43" viewBox="0 0 43 43" fill="none" xmlns="http://www.w3.org/2000/svg">
<path d="M3.17914 35.8333V40.7604C3.17914 41.5023 3.78103 42.1042 4.52289 42.1042H38.4771C39.2189 42.1042 39.8208 41.5023 39.8208 40.7604V35.8333C39.8208 35.0915 39.2189 34.4896 38.4771 34.4896C37.7352 34.4896 37.1333 35.0915 37.1333 35.8333V39.4167H5.86664V35.8333C5.86664 35.0915 5.26475 34.4896 4.52289 34.4896C3.78103 34.4896 3.17914 35.0915 3.17914 35.8333Z" fill="#323232"/>
<path d="M39.8646 8.95833C39.8646 8.60489 39.7246 8.26458 39.4761 8.0135L32.83 1.29475C32.5772 1.0393 32.2334 0.895828 31.8747 0.895828H4.52289C3.78103 0.895828 3.17914 1.49772 3.17914 2.23958V13.4375C3.17914 14.1794 3.78103 14.7812 4.52289 14.7812C5.26475 14.7812 5.86664 14.1794 5.86664 13.4375V3.58333H29.1146V10.75C29.1146 11.4919 29.7164 12.0937 30.4583 12.0937H37.1771V13.4375C37.1771 14.1794 37.7789 14.7812 38.5208 14.7812C39.2627 14.7812 39.8646 14.1794 39.8646 13.4375V8.95833ZM31.8021 4.07685L37.0741 9.40624H31.8021V4.07685Z" fill="#323232"/>
<path d="M11.7272 20.1562C12.4691 20.1562 13.0709 19.5544 13.0709 18.8125C13.0709 18.0706 12.4691 17.4688 11.7272 17.4688H5.21228C4.47042 17.4688 3.86853 18.0706 3.86853 18.8125V30.4583C3.86853 31.2002 4.47042 31.8021 5.21228 31.8021H11.7272C12.4691 31.8021 13.0709 31.2002 13.0709 30.4583C13.0709 29.7165 12.4691 29.1146 11.7272 29.1146H6.55603V20.1562H11.7272Z" fill="#323232"/>
<path d="M18.2421 29.1146C17.5003 29.1146 16.8984 29.7165 16.8984 30.4583C16.8984 31.2002 17.5003 31.8021 18.2421 31.8021H24.7579C25.4998 31.8021 26.1017 31.2002 26.1017 30.4583V24.8384C26.1017 24.0965 25.4998 23.4946 24.7579 23.4946H19.5859V20.1562H24.7579C25.4998 20.1562 26.1017 19.5544 26.1017 18.8125C26.1017 18.0706 25.4998 17.4688 24.7579 17.4688H18.2421C17.5003 17.4688 16.8984 18.0706 16.8984 18.8125V24.8384C16.8984 25.5802 17.5003 26.1821 18.2421 26.1821H23.4142V29.1146H18.2421Z" fill="#323232"/>
<path d="M31.2728 29.1146C30.531 29.1146 29.9291 29.7165 29.9291 30.4583C29.9291 31.2002 30.531 31.8021 31.2728 31.8021H37.7877C38.5296 31.8021 39.1315 31.2002 39.1315 30.4583V24.8384C39.1315 24.0965 38.5296 23.4946 37.7877 23.4946H32.6166V20.1562H37.7877C38.5296 20.1562 39.1315 19.5544 39.1315 18.8125C39.1315 18.0706 38.5296 17.4688 37.7877 17.4688H31.2728C30.531 17.4688 29.9291 18.0706 29.9291 18.8125V24.8384C29.9291 25.5802 30.531 26.1821 31.2728 26.1821H36.444V29.1146H31.2728Z" fill="#323232"/>
</svg>
