<svg width="30" height="30" viewBox="0 0 30 30" fill="none" xmlns="http://www.w3.org/2000/svg">
<path d="M3.75 9.375H26.25C27.285 9.375 28.125 8.535 28.125 7.5C28.125 6.465 27.285 5.625 26.25 5.625H3.75C2.715 5.625 1.875 6.465 1.875 7.5C1.875 8.535 2.715 9.375 3.75 9.375ZM26.25 13.125H3.75C2.715 13.125 1.875 13.965 1.875 15C1.875 16.035 2.715 16.875 3.75 16.875H26.25C27.285 16.875 28.125 16.035 28.125 15C28.125 13.965 27.285 13.125 26.25 13.125ZM26.25 20.625H3.75C2.715 20.625 1.875 21.465 1.875 22.5C1.875 23.535 2.715 24.375 3.75 24.375H26.25C27.285 24.375 28.125 23.535 28.125 22.5C28.125 21.465 27.285 20.625 26.25 20.625Z" fill="#FFFBFB"/>
</svg>
