<svg width="53" height="53" viewBox="0 0 53 53" fill="none" xmlns="http://www.w3.org/2000/svg">
<path d="M15.2906 9.16069H17.1846V11.2351H19.2562V5.03983H17.1846V7.08717H15.2906V5.03983H13.2198V11.2351H15.2906V9.16069Z" fill="#323232"/>
<path d="M21.9785 11.2351H24.0492V7.09558H25.8713V5.03983H20.1565V7.09558H21.9785V11.2351Z" fill="#323232"/>
<path d="M28.8049 8.166L30.2315 10.3676H30.2661L31.6899 8.166V11.2351H33.7531V5.03983H31.5936L30.2661 7.21992L28.9386 5.03983H26.78V11.2351H28.8049V8.166Z" fill="#323232"/>
<path d="M39.7661 9.18873H36.854V5.03983H34.7833V11.2351H39.7661V9.18873Z" fill="#323232"/>
<path d="M10.2358 13.9537L13.1974 47.1711L26.4921 50.861L39.797 47.173L42.7642 13.9537H10.2358ZM36.3389 24.8168H26.4995H20.7483L21.1203 28.9891H26.4995H35.9687L34.8516 41.5003L26.4995 43.8141L26.4939 43.8159L18.1475 41.5003L17.5651 34.9563H21.6542L21.957 38.3507L26.4949 39.5773L26.5005 39.5754L31.043 38.3489L31.516 33.065H26.5005H17.3959L16.2955 20.7445H26.4995H36.7026L36.3389 24.8168Z" fill="#323232"/>
</svg>
