<svg width="48" height="48" viewBox="0 0 48 48" fill="none" xmlns="http://www.w3.org/2000/svg">
<path d="M37.6846 7.10156L33.1961 2.6131V7.10156H37.6846Z" fill="#323232"/>
<path d="M32.3922 8.70859C31.9486 8.70859 31.5888 8.34879 31.5888 7.90521V1.47656H8.28516V32.0125H38.8211V8.70859H32.3922ZM17.1245 21.5656V26.3875C17.1245 27.2736 17.8455 27.9945 18.7315 27.9945C19.1751 27.9945 19.5352 28.3543 19.5352 28.7979C19.5352 29.2415 19.1751 29.6016 18.7315 29.6016C16.9589 29.6016 15.5172 28.1599 15.5172 26.3875V21.5656C15.5172 20.6796 14.7968 19.9586 13.9102 19.9586C13.4666 19.9586 13.1065 19.5988 13.1065 19.1552C13.1065 18.7116 13.4666 18.3516 13.9102 18.3516C14.7968 18.3516 15.5172 17.6309 15.5172 16.7445V11.9229C15.5172 10.1503 16.9589 8.70859 18.7315 8.70859C19.1751 8.70859 19.5352 9.06867 19.5352 9.51251C19.5352 9.95581 19.1751 10.3156 18.7315 10.3156C17.8455 10.3156 17.1245 11.0369 17.1245 11.9229V16.7445C17.1245 17.7031 16.7023 18.5661 16.0341 19.1552C16.7018 19.7441 17.1245 20.6071 17.1245 21.5656ZM24.3565 26.3875C24.3565 26.8308 23.9967 27.1906 23.5531 27.1906C23.1096 27.1906 22.7495 26.8308 22.7495 26.3875V21.5656C22.7495 21.1223 23.1096 20.7625 23.5531 20.7625C23.9967 20.7625 24.3565 21.1223 24.3565 21.5656V26.3875ZM24.3565 16.7445C24.3565 17.1881 23.9967 17.5479 23.5531 17.5479C23.1096 17.5479 22.7495 17.1881 22.7495 16.7445V15.1375C22.7495 14.6937 23.1096 14.3336 23.5531 14.3336C23.9967 14.3336 24.3565 14.6937 24.3565 15.1375V16.7445ZM33.1961 19.9586C32.3095 19.9586 31.5888 20.6796 31.5888 21.5656V26.3875C31.5888 28.1599 30.1474 29.6016 28.3745 29.6016C27.9309 29.6016 27.5711 29.2415 27.5711 28.7979C27.5711 28.3543 27.9309 27.9945 28.3745 27.9945C29.2608 27.9945 29.9815 27.2736 29.9815 26.3875V21.5656C29.9815 20.6071 30.4034 19.7441 31.0722 19.1552C30.4034 18.5661 29.9815 17.7031 29.9815 16.7445V11.9229C29.9815 11.0369 29.2608 10.3156 28.3745 10.3156C27.9309 10.3156 27.5711 9.95581 27.5711 9.51251C27.5711 9.06867 27.9309 8.70859 28.3745 8.70859C30.1474 8.70859 31.5888 10.1503 31.5888 11.9229V16.7445C31.5888 17.6309 32.3095 18.3516 33.1961 18.3516C33.6397 18.3516 33.9995 18.7116 33.9995 19.1552C33.9995 19.5988 33.6397 19.9586 33.1961 19.9586Z" fill="#323232"/>
<path d="M8.28516 33.6195V46.4766H38.8211V33.6195H8.28516ZM21.9461 41.6552C21.9461 43.4279 20.5044 44.8695 18.7315 44.8695C16.9589 44.8695 15.5172 43.4279 15.5172 41.6552C15.5172 41.2116 15.8775 40.8516 16.3211 40.8516C16.7647 40.8516 17.1245 41.2116 17.1245 41.6552C17.1245 42.5413 17.8455 43.2625 18.7315 43.2625C19.6178 43.2625 20.3388 42.5413 20.3388 41.6552V36.0302C20.3388 35.5866 20.6986 35.2266 21.1422 35.2266C21.5858 35.2266 21.9461 35.5866 21.9461 36.0302V41.6552ZM27.169 39.2445H27.9727C29.5234 39.2445 30.7852 40.506 30.7852 42.057C30.7852 43.6078 29.5234 44.8695 27.9727 44.8695H25.1602C24.7166 44.8695 24.3565 44.5095 24.3565 44.0656C24.3565 43.6223 24.7166 43.2625 25.1602 43.2625H27.9727C28.6373 43.2625 29.1781 42.7217 29.1781 42.057C29.1781 41.3924 28.6373 40.8516 27.9727 40.8516H27.169C25.6183 40.8516 24.3565 39.5898 24.3565 38.0391C24.3565 36.4883 25.6183 35.2266 27.169 35.2266H29.9815C30.4251 35.2266 30.7852 35.5866 30.7852 36.0302C30.7852 36.4738 30.4251 36.8336 29.9815 36.8336H27.169C26.5046 36.8336 25.9638 37.3744 25.9638 38.0391C25.9638 38.7037 26.5046 39.2445 27.169 39.2445Z" fill="#323232"/>
</svg>
