<svg width="16" height="16" viewBox="0 0 50 50" fill="#eaeaea" xmlns="http://www.w3.org/2000/svg">
<path d="M49.6857 18.9251C49.6806 18.8684 49.6693 18.8123 49.6519 18.758C49.6406 18.7095 49.6249 18.6621 49.605 18.6164C49.582 18.5717 49.5544 18.5294 49.5228 18.4904C49.491 18.444 49.4543 18.4012 49.4133 18.3627C49.4 18.3513 49.3943 18.3355 49.3804 18.3241L41.4634 12.1754V5.80282C41.4634 4.43889 40.3576 3.33313 38.9937 3.33313H30.0723L26.5002 0.559647C25.6178 -0.128586 24.3803 -0.128586 23.4979 0.559647L19.925 3.33313H11.0037C9.63975 3.33313 8.53399 4.4388 8.53399 5.80282V12.1755L0.619496 18.3242C0.605508 18.3357 0.599719 18.3514 0.586599 18.3628C0.545599 18.4012 0.508843 18.4441 0.477103 18.4905C0.44546 18.5295 0.417869 18.5717 0.394812 18.6165C0.374843 18.6621 0.359214 18.7096 0.347927 18.7581C0.330755 18.8116 0.319467 18.8668 0.314161 18.9228C0.314161 18.94 0.304321 18.9549 0.304321 18.9722V46.9643C0.305479 47.4879 0.474884 47.9973 0.787551 48.4172C0.792471 48.4247 0.793339 48.4337 0.799031 48.4403C0.80482 48.4469 0.817168 48.4543 0.825368 48.4634C1.28786 49.0719 2.00715 49.4307 2.7715 49.434H47.2259C47.9933 49.4316 48.7156 49.0711 49.1786 48.4593C49.1852 48.4511 49.1951 48.4486 49.2008 48.4404C49.2066 48.4322 49.2074 48.4248 49.2124 48.4173C49.5251 47.9973 49.6945 47.4879 49.6956 46.9644V18.9745C49.6955 18.9572 49.6866 18.9423 49.6857 18.9251ZM24.5047 1.85865C24.7922 1.6302 25.1993 1.6302 25.4868 1.85865L27.3859 3.33303H22.6112L24.5047 1.85865ZM2.97892 47.7876L24.5048 31.0669C24.7925 30.8388 25.1993 30.8388 25.4869 31.0669L47.0184 47.7876H2.97892ZM48.0491 46.5041L26.5002 29.7678C25.6176 29.0801 24.3805 29.0801 23.4979 29.7678L1.94821 46.5041V20.2282L15.4385 30.7039C15.798 30.9826 16.3152 30.9172 16.594 30.5577C16.8727 30.1983 16.8073 29.681 16.4478 29.4023L2.74266 18.7604L8.53408 14.2598V20.6209C8.53408 21.0755 8.9027 21.4441 9.35728 21.4441C9.81196 21.4441 10.1805 21.0754 10.1805 20.6209V5.80272C10.1805 5.34805 10.549 4.97953 11.0037 4.97953H38.9935C39.4481 4.97953 39.8167 5.34805 39.8167 5.80272V20.6209C39.8167 21.0755 40.1852 21.4441 40.6399 21.4441C41.0945 21.4441 41.4631 21.0754 41.4631 20.6209V14.2598L47.2545 18.7604L33.5255 29.4213C33.2894 29.6002 33.1675 29.8923 33.2067 30.1861C33.2458 30.4799 33.4398 30.7299 33.7147 30.8408C33.9896 30.9516 34.3028 30.9063 34.5348 30.7219L48.0489 20.2282V46.5041H48.0491Z" fill="#eaeaea"/>
<path d="M34.8774 19.7977V16.5048C34.8774 11.0489 30.4545 6.62602 24.9986 6.62602C19.5427 6.62602 15.1199 11.0489 15.1199 16.5048C15.1199 21.9607 19.5427 26.3835 24.9986 26.3835C25.4533 26.3835 25.8218 26.015 25.8218 25.5604C25.8218 25.1057 25.4533 24.7372 24.9986 24.7372C20.4521 24.7372 16.7664 21.0514 16.7664 16.5049C16.7664 11.9583 20.4521 8.27261 24.9986 8.27261C29.5452 8.27261 33.2309 11.9583 33.2309 16.5049V19.7978C33.2309 20.7071 32.4938 21.4443 31.5844 21.4443C30.6751 21.4443 29.9379 20.7071 29.9379 19.7978V16.5049C29.9379 16.0502 29.5694 15.6817 29.1147 15.6817C28.66 15.6817 28.2915 16.0502 28.2915 16.5049C28.2915 18.3235 26.8172 19.7978 24.9986 19.7978C23.18 19.7978 21.7057 18.3235 21.7057 16.5049C21.7057 14.6863 23.18 13.212 24.9986 13.212C25.4533 13.212 25.8218 12.8435 25.8218 12.3888C25.8218 11.9341 25.4533 11.5656 24.9986 11.5656C22.788 11.5607 20.8432 13.0252 20.2373 15.1513C19.6315 17.2773 20.512 19.547 22.3932 20.7082C24.2744 21.8693 26.698 21.6391 28.3269 20.1445C28.5062 21.8854 30.0193 23.1799 31.767 23.0874C33.5148 22.9948 34.8829 21.5479 34.8774 19.7977Z" fill="#eaeaea"/>
</svg>
