<svg width="48" height="30" viewBox="0 0 48 30" fill="none" xmlns="http://www.w3.org/2000/svg">
<rect x="10" width="8" height="30" rx="4" fill="#FFFBFB"/>
<path d="M28 30L22 30C32 22.5 32 7.49999 22 -3.65644e-07L28 1.58895e-07L48 15L28 30Z" fill="white"/>
<path d="M26.2597 -3.18743e-07C27.1594 -3.20054e-07 28.0245 0.346425 28.6755 0.967371C30.9608 3.14718 29.4179 7 26.2597 7L3.5 7C1.567 7 -2.37484e-07 5.433 -1.5299e-07 3.5C-6.84959e-08 1.567 1.56701 -2.82765e-07 3.5 -2.85581e-07L26.2597 -3.18743e-07Z" fill="#FFFBFB"/>
<path d="M37 17C38.1046 17 39 16.1046 39 15C39 13.8954 38.1046 13 37 13L36 13C34.8954 13 34 13.8954 34 15C34 16.1046 34.8954 17 36 17L37 17Z" fill="#960707"/>
<path d="M37 17C38.1046 17 39 16.1046 39 15C39 13.8954 38.1046 13 37 13L36 13C34.8954 13 34 13.8954 34 15C34 16.1046 34.8954 17 36 17L37 17Z" fill="#960707"/>
<path d="M37 17C38.1046 17 39 16.1046 39 15C39 13.8954 38.1046 13 37 13L36 13C34.8954 13 34 13.8954 34 15C34 16.1046 34.8954 17 36 17L37 17Z" fill="#960707"/>
<path d="M22 17C23.1046 17 24 16.1046 24 15C24 13.8954 23.1046 13 22 13L21 13C19.8954 13 19 13.8954 19 15C19 16.1046 19.8954 17 21 17L22 17Z" fill="#007AB9"/>
<path d="M6 17C4.89543 17 4 16.1046 4 15C4 13.8954 4.89543 13 6 13L7 13C8.10457 13 9 13.8954 9 15C9 16.1046 8.10457 17 7 17L6 17Z" fill="#960707"/>
<path d="M6 17C4.89543 17 4 16.1046 4 15C4 13.8954 4.89543 13 6 13L7 13C8.10457 13 9 13.8954 9 15C9 16.1046 8.10457 17 7 17L6 17Z" fill="#960707"/>
<path d="M6 17C4.89543 17 4 16.1046 4 15C4 13.8954 4.89543 13 6 13L7 13C8.10457 13 9 13.8954 9 15C9 16.1046 8.10457 17 7 17L6 17Z" fill="#DAC400"/>
</svg>
