<svg width="16" height="16" viewBox="0 0 49 49" fill="none" xmlns="http://www.w3.org/2000/svg">
<path d="M24.4828 48.9655C38.0042 48.9655 48.9655 38.0042 48.9655 24.4828C48.9655 10.9613 38.0042 0 24.4828 0C10.9613 0 0 10.9613 0 24.4828C0 38.0042 10.9613 48.9655 24.4828 48.9655Z" fill="#007AB9"/>
<path d="M39.1108 26.4521V36.5458H33.2588V27.1286C33.2588 24.764 32.4138 23.1492 30.295 23.1492C28.678 23.1492 27.7174 24.2364 27.2932 25.289C27.1392 25.6652 27.0995 26.1876 27.0995 26.7153V36.5454H21.2469C21.2469 36.5454 21.3255 20.5957 21.2469 18.9447H27.0999V21.4389C27.0881 21.4585 27.0715 21.4777 27.061 21.4965H27.0999V21.4389C27.8776 20.2422 29.2646 18.5314 32.3741 18.5314C36.2243 18.5314 39.1108 21.0469 39.1108 26.4521ZM15.1247 10.4605C13.1228 10.4605 11.8131 11.7746 11.8131 13.5011C11.8131 15.1909 13.0849 16.543 15.0479 16.543H15.0859C17.1271 16.543 18.3962 15.1909 18.3962 13.5011C18.3574 11.7746 17.1271 10.4605 15.1247 10.4605ZM12.1609 36.5458H18.0113V18.9447H12.1609V36.5458Z" fill="#F1F2F2"/>
</svg>
