<svg width="52" height="52" viewBox="0 0 52 52" fill="none" xmlns="http://www.w3.org/2000/svg">
<path d="M25.9566 30.316C28.3594 30.316 30.3073 28.3681 30.3073 25.9653C30.3073 23.5625 28.3594 21.6146 25.9566 21.6146C23.5538 21.6146 21.606 23.5625 21.606 25.9653C21.606 28.3681 23.5538 30.316 25.9566 30.316Z" fill="#323232"/>
<path d="M25.9567 35.932C19.8467 35.932 14.508 35.2127 10.5127 33.8434C7.92133 32.9594 5.72 31.7807 4.15133 30.4374C2.48733 29.016 1.60333 27.4647 1.60333 25.9654C1.60333 23.088 4.758 20.2713 10.0533 18.434C14.3867 16.926 20.0373 16.0853 25.948 16.0853C31.7547 16.0853 37.3273 16.9 41.6347 18.3907C44.1567 19.2573 46.28 20.384 47.788 21.632C49.426 23.0013 50.2927 24.5007 50.2927 25.9654C50.2927 28.9554 46.7653 31.98 41.08 33.8607C37.0587 35.1954 31.6853 35.932 25.9567 35.932ZM25.9567 18.1653C20.3493 18.1653 14.8027 18.98 10.7467 20.3927C5.876 22.0913 3.692 24.414 3.692 25.9654C3.692 27.5774 6.04067 30.1167 11.1887 31.876C14.9673 33.1674 20.0807 33.852 25.9567 33.852C31.4687 33.852 36.608 33.1587 40.43 31.8847C45.7773 30.108 48.2213 27.5687 48.2213 25.9654C48.2213 25.142 47.5973 24.1713 46.462 23.2267C45.1533 22.1347 43.2467 21.138 40.9673 20.3493C36.868 18.9453 31.538 18.1653 25.9567 18.1653Z" fill="#323232"/>
<path d="M16.0853 47.6493C15.2013 47.6493 14.4213 47.4587 13.7626 47.0773C11.2753 45.6387 10.4086 41.496 11.4573 35.9927C12.3153 31.4773 14.4126 26.1733 17.368 21.0513C20.2713 16.0247 23.7553 11.6047 27.196 8.61466C29.2066 6.86399 31.2433 5.58132 33.0806 4.90532C35.0826 4.16866 36.816 4.16866 38.0813 4.89666C40.6726 6.38732 41.5306 10.9633 40.3173 16.822C39.4593 20.982 37.414 26 34.554 30.966C31.5033 36.2527 28.21 40.5167 25.0293 43.2987C22.9666 45.1013 20.8433 46.4187 18.902 47.1033C17.888 47.4673 16.9346 47.6493 16.0853 47.6493ZM18.2606 21.5713L19.162 22.0913C16.3626 26.9447 14.2913 32.1533 13.494 36.3827C12.532 41.4527 13.4593 44.5033 14.794 45.2747C15.1233 45.4653 15.5566 45.5693 16.0853 45.5693C17.81 45.5693 20.5226 44.4773 23.66 41.7387C26.6673 39.1127 29.8133 35.022 32.7513 29.9347C35.5073 25.1593 37.466 20.358 38.2806 16.4147C39.416 10.894 38.4366 7.51399 37.0413 6.70799C36.3306 6.30066 35.178 6.35266 33.7913 6.86399C32.188 7.45332 30.3766 8.60599 28.5566 10.192C25.2893 13.0347 21.9526 17.264 19.162 22.1L18.2606 21.5713Z" fill="#323232"/>
<path d="M35.8279 47.6753C33.4706 47.6753 30.4806 46.254 27.3606 43.5673C23.8766 40.5687 20.332 36.1053 17.368 30.9833C14.456 25.9567 12.376 20.7307 11.5006 16.25C10.9893 13.6327 10.894 11.232 11.2233 9.29934C11.5873 7.19334 12.4453 5.69401 13.7193 4.95734C16.302 3.45801 20.696 5.00068 25.168 8.97868C28.34 11.7953 31.668 16.0767 34.5366 21.034C37.5959 26.3207 39.6499 31.304 40.4646 35.4467C40.9933 38.1333 41.0799 40.6293 40.7073 42.6573C40.3086 44.8153 39.4073 46.3493 38.1073 47.1033C37.4573 47.4847 36.6859 47.6753 35.8279 47.6753ZM19.1706 29.9433C21.9786 34.7967 25.4626 39.1907 28.7213 41.99C32.6299 45.3527 35.7326 46.0807 37.0759 45.3007C38.4713 44.4947 39.4939 41.1927 38.4366 35.854C37.6566 31.9367 35.6893 27.17 32.7426 22.0827C29.978 17.3073 26.7973 13.208 23.79 10.5387C19.578 6.79468 16.1633 5.95401 14.768 6.76001C14.0573 7.16734 13.5286 8.19868 13.2773 9.65468C12.9913 11.336 13.078 13.4853 13.546 15.8513C14.378 20.1067 16.3713 25.1073 19.1706 29.9433Z" fill="#323232"/>
</svg>
