<svg width="52" height="52" viewBox="0 0 52 52" fill="none" xmlns="http://www.w3.org/2000/svg">
<path fill-rule="evenodd" clip-rule="evenodd" d="M3.32269 41.959C3.32269 45.6161 6.27993 48.5733 9.93699 48.5733C11.76 48.5733 13.4617 47.8831 14.6613 46.6834L26.718 34.6175L29.9495 37.8489C29.5146 39.4365 29.9307 41.2128 31.1876 42.4788L35.8742 47.1654C37.7446 49.0271 40.7395 49.0457 42.5826 47.203C44.4254 45.36 44.4066 42.3659 42.5445 40.4946L37.858 35.808C36.5919 34.5512 34.8156 34.1359 33.2285 34.5706L29.997 31.3476L32.0753 29.2693C36.4969 30.3844 41.3726 29.2216 44.8218 25.849C47.1933 23.5246 48.4984 20.5764 48.6771 17.5248V17.3644C48.6771 16.3337 47.8263 15.5022 46.7781 15.5022C46.2579 15.5022 45.7855 15.7109 45.4357 16.0411L44.879 16.5893L42.97 18.4597C41.7695 19.6316 40.0597 20.3209 38.2171 20.3209C36.3844 20.3209 34.7679 19.5182 33.5682 18.337C32.3873 17.1375 31.5749 15.5116 31.5749 13.679C31.5749 11.8365 32.2644 10.1265 33.4362 8.92601L35.3066 7.01678L35.8546 6.46027C36.1853 6.11052 36.3934 5.63805 36.3934 5.11763C36.3934 4.06942 35.5623 3.21859 34.5314 3.21859H34.3709C31.3195 3.39758 28.3714 4.70247 26.0469 7.07398C22.6742 10.5231 21.5208 15.3989 22.6355 19.8116L20.5483 21.8988L11.8266 13.1687V10.7779L6.15732 7.94311L3.32269 10.7777L6.15732 16.4471H8.53798L17.2689 25.1688L5.21237 37.2347C4.01294 38.4343 3.32269 40.136 3.32269 41.959ZM8.047 41.4865C8.047 40.1828 9.1054 39.1246 10.4093 39.1246C11.7132 39.1246 12.7714 40.1828 12.7714 41.4865C12.7714 42.7903 11.7132 43.849 10.4093 43.849C9.10551 43.849 8.047 42.7903 8.047 41.4865Z" fill="#010101"/>
</svg>
